<?xml version="1.0" standalone="no"?>
<!DOCTYPE svg PUBLIC "-//W3C//DTD SVG 20010904//EN"
 "http://www.w3.org/TR/2001/REC-SVG-20010904/DTD/svg10.dtd">
<svg version="1.0" xmlns="http://www.w3.org/2000/svg"
 width="512.000000pt" height="512.000000pt" viewBox="0 0 512.000000 512.000000"
 preserveAspectRatio="xMidYMid meet">

<g transform="translate(0.000000,512.000000) scale(0.100000,-0.100000)"
fill="#000000" stroke="none">
<path d="M880 4947 c-49 -16 -133 -102 -148 -153 -7 -23 -12 -84 -12 -136 l0
-96 -127 -4 c-118 -3 -133 -6 -195 -35 -93 -43 -151 -100 -196 -191 l-37 -76
0 -1696 0 -1696 37 -76 c45 -91 103 -147 196 -191 l67 -32 1392 -3 1392 -2 35
-53 c242 -364 713 -518 1125 -368 250 91 466 303 565 552 48 124 60 193 60
349 0 173 -19 262 -90 409 -89 187 -222 330 -396 426 l-68 37 -2 1171 -3 1172
-32 67 c-44 93 -100 151 -191 195 -72 36 -79 37 -203 41 l-129 4 0 96 c0 119
-13 162 -67 222 -95 106 -236 108 -338 5 -62 -61 -75 -101 -75 -229 l0 -96
-200 0 -200 0 0 96 c0 121 -13 164 -67 224 -95 106 -236 108 -338 5 -62 -61
-75 -101 -75 -229 l0 -96 -240 0 -240 0 0 96 c0 121 -13 164 -67 224 -95 106
-236 108 -338 5 -62 -61 -75 -101 -75 -229 l0 -96 -200 0 -200 0 0 96 c0 121
-13 164 -67 224 -65 72 -158 97 -253 67z m135 -172 l25 -24 0 -271 0 -271 -25
-24 c-15 -16 -36 -25 -55 -25 -19 0 -40 9 -55 25 l-25 24 0 271 0 271 25 24
c15 16 36 25 55 25 19 0 40 -9 55 -25z m880 0 l25 -24 0 -271 0 -271 -25 -24
c-15 -16 -36 -25 -55 -25 -19 0 -40 9 -55 25 l-25 24 0 271 0 271 25 24 c15
16 36 25 55 25 19 0 40 -9 55 -25z m960 0 l25 -24 0 -271 0 -271 -25 -24 c-15
-16 -36 -25 -55 -25 -19 0 -40 9 -55 25 l-25 24 0 271 0 271 25 24 c15 16 36
25 55 25 19 0 40 -9 55 -25z m880 0 l25 -24 0 -271 0 -271 -25 -24 c-15 -16
-36 -25 -55 -25 -19 0 -40 9 -55 25 l-25 24 0 271 0 271 25 24 c15 16 36 25
55 25 19 0 40 -9 55 -25z m-3015 -471 c0 -128 13 -168 75 -229 102 -103 243
-101 338 5 54 60 67 103 67 224 l0 96 200 0 200 0 0 -96 c0 -128 13 -168 75
-229 102 -103 243 -101 338 5 54 60 67 103 67 224 l0 96 240 0 240 0 0 -96 c0
-128 13 -168 75 -229 102 -103 243 -101 338 5 54 60 67 103 67 224 l0 96 200
0 200 0 0 -96 c0 -128 13 -168 75 -229 102 -103 243 -101 338 5 54 60 67 103
67 224 l0 96 96 0 c128 0 168 -13 229 -75 70 -70 75 -92 75 -349 l0 -216
-2000 0 -2000 0 0 216 c0 257 5 279 75 349 62 63 92 73 223 74 l102 1 0 -96z
m3600 -1520 l0 -816 -22 5 c-79 20 -184 29 -275 23 l-103 -6 0 221 0 220 -25
24 -24 25 -271 0 -271 0 -24 -25 -25 -24 0 -271 0 -271 25 -24 c23 -23 31 -25
132 -25 l108 -1 -35 -26 c-76 -57 -206 -202 -251 -279 -100 -172 -133 -292
-133 -494 0 -118 4 -160 22 -227 12 -45 22 -84 22 -87 0 -3 -595 -6 -1321 -6
-1009 0 -1331 3 -1363 12 -55 16 -138 99 -154 154 -9 32 -12 358 -12 1378 l0
1336 2000 0 2000 0 0 -816z m-560 -624 l0 -160 -160 0 -160 0 0 160 0 160 160
0 160 0 0 -160z m510 -343 c209 -57 367 -171 481 -345 88 -134 124 -258 124
-432 0 -174 -36 -298 -124 -432 -240 -366 -718 -476 -1087 -249 -325 201 -463
591 -335 953 93 262 317 453 601 514 80 17 262 12 340 -9z"/>
<path d="M665 3335 l-25 -24 0 -271 0 -271 25 -24 24 -25 271 0 271 0 24 25
25 24 0 271 0 271 -25 24 -24 25 -271 0 -271 0 -24 -25z m455 -295 l0 -160
-160 0 -160 0 0 160 0 160 160 0 160 0 0 -160z"/>
<path d="M1545 3335 l-25 -24 0 -271 0 -271 25 -24 24 -25 271 0 271 0 24 25
25 24 0 271 0 271 -25 24 -24 25 -271 0 -271 0 -24 -25z m455 -295 l0 -160
-160 0 -160 0 0 160 0 160 160 0 160 0 0 -160z"/>
<path d="M2425 3335 l-25 -24 0 -271 0 -271 25 -24 24 -25 271 0 271 0 24 25
25 24 0 271 0 271 -25 24 -24 25 -271 0 -271 0 -24 -25z m455 -295 l0 -160
-160 0 -160 0 0 160 0 160 160 0 160 0 0 -160z"/>
<path d="M3305 3335 l-25 -24 0 -271 0 -271 25 -24 24 -25 271 0 271 0 24 25
25 24 0 271 0 271 -25 24 -24 25 -271 0 -271 0 -24 -25z m455 -295 l0 -160
-160 0 -160 0 0 160 0 160 160 0 160 0 0 -160z"/>
<path d="M665 2455 l-25 -24 0 -271 0 -271 25 -24 24 -25 271 0 271 0 24 25
25 24 0 271 0 271 -25 24 -24 25 -271 0 -271 0 -24 -25z m455 -295 l0 -160
-160 0 -160 0 0 160 0 160 160 0 160 0 0 -160z"/>
<path d="M1545 2455 l-25 -24 0 -271 0 -271 25 -24 24 -25 271 0 271 0 24 25
25 24 0 271 0 271 -25 24 -24 25 -271 0 -271 0 -24 -25z m455 -295 l0 -160
-160 0 -160 0 0 160 0 160 160 0 160 0 0 -160z"/>
<path d="M2425 2455 l-25 -24 0 -271 0 -271 25 -24 24 -25 271 0 271 0 24 25
25 24 0 271 0 271 -25 24 -24 25 -271 0 -271 0 -24 -25z m455 -295 l0 -160
-160 0 -160 0 0 160 0 160 160 0 160 0 0 -160z"/>
<path d="M665 1575 l-25 -24 0 -271 0 -271 25 -24 24 -25 271 0 271 0 24 25
25 24 0 271 0 271 -25 24 -24 25 -271 0 -271 0 -24 -25z m455 -295 l0 -160
-160 0 -160 0 0 160 0 160 160 0 160 0 0 -160z"/>
<path d="M1545 1575 l-25 -24 0 -271 0 -271 25 -24 24 -25 271 0 271 0 24 25
25 24 0 271 0 271 -25 24 -24 25 -271 0 -271 0 -24 -25z m455 -295 l0 -160
-160 0 -160 0 0 160 0 160 160 0 160 0 0 -160z"/>
<path d="M2425 1575 l-25 -24 0 -271 0 -271 25 -24 24 -25 271 0 271 0 24 25
25 24 0 271 0 271 -25 24 -24 25 -271 0 -271 0 -24 -25z m455 -295 l0 -160
-160 0 -160 0 0 160 0 160 160 0 160 0 0 -160z"/>
<path d="M4000 1429 l0 -251 -24 -19 c-30 -23 -56 -78 -56 -116 0 -26 -18 -44
-145 -145 l-145 -116 47 -58 c25 -33 48 -61 49 -63 2 -2 68 48 147 112 140
112 146 115 185 110 54 -7 105 12 141 52 55 63 53 150 -4 211 l-35 37 0 248 0
249 -80 0 -80 0 0 -251z"/>
</g>
</svg>
