<?xml version="1.0" standalone="no"?>
<!DOCTYPE svg PUBLIC "-//W3C//DTD SVG 20010904//EN"
 "http://www.w3.org/TR/2001/REC-SVG-20010904/DTD/svg10.dtd">
<svg version="1.0" xmlns="http://www.w3.org/2000/svg"
 width="512.000000pt" height="512.000000pt" viewBox="0 0 512.000000 512.000000"
 preserveAspectRatio="xMidYMid meet">

<g transform="translate(0.000000,512.000000) scale(0.100000,-0.100000)"
fill="#000000" stroke="none">
<path d="M2101 5100 c-54 -25 -97 -62 -174 -151 -97 -112 -104 -114 -285 -111
-178 4 -228 -8 -286 -64 -43 -42 -74 -100 -110 -209 -30 -93 -55 -138 -90
-160 -13 -9 -68 -32 -121 -51 -126 -45 -166 -66 -210 -111 -55 -56 -69 -120
-62 -274 9 -186 14 -176 -162 -344 -80 -76 -108 -122 -117 -188 -8 -57 7 -111
69 -242 69 -146 68 -162 -8 -325 -54 -115 -59 -131 -59 -195 -1 -49 5 -81 18
-105 10 -19 71 -87 135 -150 136 -133 133 -126 124 -309 -8 -162 4 -209 71
-277 52 -51 65 -57 261 -129 64 -23 107 -66 130 -130 63 -172 79 -206 115
-248 23 -26 59 -53 85 -63 25 -11 45 -23 45 -29 0 -5 -79 -215 -175 -467 -186
-485 -188 -493 -139 -525 22 -14 40 -14 196 2 l172 16 80 -88 c141 -154 161
-173 190 -173 15 0 37 10 49 22 14 14 90 201 197 481 l175 457 40 11 c22 6 90
34 150 62 145 68 165 68 310 0 61 -28 128 -56 150 -62 l40 -11 175 -457 c106
-279 183 -467 197 -480 12 -13 34 -23 49 -23 29 0 49 19 190 173 l80 88 172
-16 c156 -16 174 -16 196 -2 49 32 47 40 -139 525 -96 251 -175 462 -175 467
0 6 20 18 45 29 26 10 62 37 85 63 36 42 52 76 115 248 23 64 66 107 130 130
196 72 209 78 261 129 68 68 79 115 71 283 -4 67 -4 137 0 155 5 25 36 62 124
148 64 63 125 131 135 150 13 24 19 56 18 105 0 64 -5 80 -59 195 -76 163 -77
179 -8 325 62 131 77 185 69 242 -9 66 -38 114 -117 189 -40 38 -89 85 -110
104 -51 49 -59 88 -52 239 11 242 -29 298 -272 385 -53 19 -108 42 -121 51
-35 22 -60 67 -90 160 -36 109 -67 167 -110 209 -58 56 -108 68 -286 64 -182
-3 -188 -1 -287 114 -164 190 -240 207 -464 102 -160 -75 -173 -75 -336 1
-147 69 -217 80 -290 45z m247 -189 c133 -63 193 -77 265 -62 28 7 100 34 159
62 59 28 126 53 149 56 l41 6 117 -121 c159 -165 165 -167 383 -164 l167 2 31
-27 c22 -21 42 -61 74 -150 71 -196 103 -228 299 -299 90 -32 129 -52 150 -74
l28 -31 -3 -167 c-3 -165 -3 -168 25 -224 20 -42 54 -81 128 -149 55 -51 107
-106 116 -122 20 -40 14 -66 -51 -205 -32 -68 -58 -139 -62 -168 -8 -63 12
-137 66 -243 54 -109 66 -153 50 -190 -7 -17 -59 -74 -116 -126 -77 -72 -110
-111 -131 -153 -27 -56 -28 -60 -25 -213 1 -86 -2 -168 -7 -182 -14 -35 -44
-53 -167 -98 -180 -65 -229 -106 -274 -228 -59 -159 -74 -195 -95 -219 l-23
-27 -174 0 c-169 0 -174 -1 -230 -28 -42 -21 -81 -54 -150 -128 -139 -151
-139 -151 -317 -67 -184 86 -231 86 -412 3 -141 -64 -168 -71 -206 -52 -16 9
-70 60 -121 116 -69 74 -108 107 -150 128 -56 27 -60 28 -214 26 -87 -2 -168
1 -182 7 -35 13 -52 43 -102 176 -23 64 -55 134 -69 156 -33 49 -95 89 -193
124 -125 44 -179 71 -196 97 -14 20 -16 51 -14 188 3 162 3 165 -25 221 -21
42 -54 81 -131 153 -57 52 -109 109 -116 126 -16 37 -4 81 50 190 54 106 74
180 66 243 -4 29 -30 100 -62 168 -65 139 -71 165 -51 205 9 16 61 71 116 122
74 68 108 107 128 149 28 56 28 59 25 224 l-2 167 27 31 c21 22 60 42 150 74
196 71 228 103 299 299 32 89 52 129 74 150 l31 27 167 -2 c219 -3 225 0 383
164 l117 121 41 -6 c23 -3 90 -28 149 -56z m-560 -3667 c12 -4 22 -11 22 -17
0 -6 -50 -141 -110 -298 -115 -301 -118 -313 -76 -349 24 -19 74 -17 95 6 10
10 63 135 117 276 l98 258 65 -63 c36 -34 64 -68 62 -76 -2 -10 -197 -521
-282 -740 -10 -24 -13 -21 -102 73 l-91 99 -108 -7 c-59 -3 -121 -9 -137 -12
l-31 -7 22 60 c264 693 304 792 323 796 33 7 108 7 133 1z m1696 -5 c1 -2 67
-173 146 -379 78 -206 151 -397 162 -424 l19 -49 -31 7 c-17 3 -79 9 -138 12
l-108 7 -91 -99 c-89 -94 -92 -97 -102 -73 -85 219 -280 730 -282 740 -2 8 26
42 62 76 l65 63 98 -258 c54 -141 107 -266 117 -276 21 -23 71 -25 95 -6 42
36 39 48 -76 349 -60 157 -110 292 -110 298 0 6 8 14 18 17 18 5 151 1 156 -5z"/>
<path d="M2387 4629 c-543 -63 -1012 -390 -1255 -874 -254 -507 -219 -1113 91
-1588 74 -114 117 -157 155 -157 35 0 72 39 72 75 0 13 -21 51 -46 85 -307
418 -376 941 -185 1414 155 386 489 699 885 830 161 53 266 69 456 69 188 0
300 -16 460 -69 111 -37 283 -125 385 -199 50 -36 100 -65 111 -65 37 0 74 37
74 75 0 38 -27 65 -144 144 -303 205 -700 302 -1059 260z"/>
<path d="M3692 4047 c-34 -36 -27 -65 39 -157 238 -333 325 -726 248 -1126
-101 -525 -487 -952 -1002 -1109 -137 -41 -259 -58 -417 -58 -323 0 -608 94
-869 286 -72 54 -106 59 -140 23 -16 -17 -22 -33 -19 -57 3 -30 15 -43 93
-102 160 -120 403 -227 615 -271 444 -91 912 14 1272 284 614 461 818 1281
489 1966 -58 121 -134 243 -192 309 -38 43 -84 48 -117 12z"/>
<path d="M1374 3340 c-51 -20 -54 -37 -54 -298 l0 -243 25 -24 c23 -24 30 -25
136 -25 139 0 185 18 230 88 39 61 41 151 5 204 -21 31 -23 43 -19 109 4 66 2
78 -19 108 -31 45 -66 70 -114 81 -49 12 -162 12 -190 0z m164 -149 c8 -5 12
-17 10 -27 -2 -14 -13 -20 -41 -22 -33 -3 -37 -1 -37 21 0 13 3 27 7 30 9 10
45 8 61 -2z m40 -213 c7 -7 12 -21 12 -33 0 -33 -20 -45 -72 -45 l-48 0 0 45
0 45 48 0 c26 0 53 -5 60 -12z"/>
<path d="M1865 3340 c-47 -19 -50 -30 -53 -264 -2 -121 -1 -235 3 -254 8 -43
38 -72 75 -72 46 0 70 31 70 90 0 28 3 50 8 50 4 0 32 -30 62 -65 30 -36 66
-68 79 -71 35 -10 74 7 89 39 17 35 9 60 -37 111 -67 75 -66 68 -17 117 66 66
80 142 40 220 -23 45 -79 86 -134 98 -59 13 -156 13 -185 1z m159 -146 c9 -4
21 -15 27 -25 12 -24 -20 -59 -55 -59 -20 0 -25 6 -29 38 -2 20 -2 40 0 45 5
9 35 9 57 1z"/>
<path d="M2494 3342 c-12 -2 -29 -11 -37 -20 -18 -19 -197 -482 -197 -507 0
-26 47 -65 78 -65 32 0 62 28 82 78 l12 32 83 0 82 0 18 -45 c9 -25 25 -50 35
-55 50 -27 113 5 113 56 0 34 -167 481 -189 505 -17 18 -47 26 -80 21z m24
-330 c-28 -5 -31 1 -16 33 l12 28 12 -29 c11 -26 10 -29 -8 -32z"/>
<path d="M3172 3334 c-38 -15 -41 -28 -45 -162 l-2 -104 -84 124 c-46 68 -91
129 -99 136 -17 13 -70 16 -88 4 -30 -20 -34 -55 -34 -290 0 -227 1 -241 21
-266 26 -33 77 -36 105 -5 16 17 20 41 24 136 l5 115 86 -123 c94 -137 121
-159 170 -139 16 7 34 21 39 31 13 24 13 495 0 519 -15 28 -61 40 -98 24z"/>
<path d="M3398 3320 l-28 -21 0 -250 c0 -314 -11 -294 165 -289 111 3 154 19
205 77 94 107 99 307 9 416 -51 62 -98 80 -219 85 -96 4 -107 2 -132 -18z
m206 -140 c75 -28 80 -220 7 -260 -11 -5 -36 -10 -55 -10 l-36 0 0 140 0 140
29 0 c16 0 41 -4 55 -10z"/>
</g>
</svg>
