<?xml version="1.0" standalone="no"?>
<!DOCTYPE svg PUBLIC "-//W3C//DTD SVG 20010904//EN"
 "http://www.w3.org/TR/2001/REC-SVG-20010904/DTD/svg10.dtd">
<svg version="1.0" xmlns="http://www.w3.org/2000/svg"
 width="512.000000pt" height="512.000000pt" viewBox="0 0 512.000000 512.000000"
 preserveAspectRatio="xMidYMid meet">

<g transform="translate(0.000000,512.000000) scale(0.100000,-0.100000)"
fill="#000000" stroke="none">
<path d="M1627 4359 c-48 -28 -47 -17 -47 -833 0 -572 3 -772 12 -791 26 -58
-57 -55 1491 -55 1422 0 1424 0 1450 21 15 11 31 37 37 57 8 25 10 275 8 795
l-3 759 -33 29 -32 29 -1433 0 c-954 -1 -1438 -4 -1450 -11z m2843 -834 l0
-745 -1390 0 -1390 0 0 745 0 745 1390 0 1390 0 0 -745z"/>
<path d="M2110 4101 c-5 -11 -10 -31 -10 -46 0 -34 -26 -94 -53 -123 -32 -35
-87 -60 -146 -68 -35 -4 -55 -13 -61 -25 -6 -10 -10 -144 -10 -317 0 -277 1
-300 18 -315 10 -10 29 -17 43 -17 104 0 208 -98 209 -196 0 -68 -65 -64 978
-64 1033 0 972 -4 972 59 0 15 12 51 26 80 32 63 92 107 163 117 88 13 81 -15
81 338 0 239 -3 316 -12 324 -7 5 -33 13 -58 17 -114 19 -200 109 -200 210 0
12 -5 26 -12 33 -9 9 -237 12 -965 12 -931 0 -953 0 -963 -19z m1856 -133 c30
-92 122 -170 242 -204 9 -3 12 -59 12 -237 l0 -234 -42 -12 c-98 -28 -194
-122 -219 -213 l-10 -38 -874 0 c-827 0 -875 1 -875 18 -1 31 -38 100 -79 145
-36 39 -98 74 -173 100 -16 6 -18 26 -18 236 l0 230 53 15 c98 28 179 108 208
204 l12 42 873 0 872 0 18 -52z"/>
<path d="M2943 3911 c-108 -40 -186 -112 -237 -221 -28 -59 -31 -74 -31 -165
0 -92 3 -106 32 -167 127 -270 486 -320 677 -96 20 23 49 67 64 98 24 50 27
66 27 165 0 99 -3 116 -27 168 -37 79 -117 160 -196 199 -58 29 -77 33 -161
35 -75 3 -107 -1 -148 -16z m266 -115 c62 -32 113 -83 142 -144 33 -67 33
-189 0 -252 -69 -135 -206 -200 -344 -165 -142 36 -234 155 -230 300 6 218
238 359 432 261z"/>
<path d="M2917 3682 c-22 -24 -22 -45 1 -65 25 -23 55 -21 78 4 17 19 17 23 3
47 -18 33 -58 40 -82 14z"/>
<path d="M3043 3568 c-135 -135 -153 -164 -121 -196 32 -32 61 -14 196 121 73
74 132 141 132 150 0 9 -9 26 -20 37 -11 11 -28 20 -37 20 -9 0 -76 -59 -150
-132z"/>
<path d="M3172 3444 c-39 -27 -19 -94 27 -94 24 0 51 31 51 58 0 18 -33 52
-50 52 -3 0 -16 -7 -28 -16z"/>
<path d="M2234 3681 c-166 -76 -112 -325 71 -325 149 0 226 176 127 288 -23
26 -91 56 -127 56 -16 0 -48 -9 -71 -19z m118 -108 c40 -36 8 -113 -47 -113
-54 0 -85 71 -48 112 20 22 70 23 95 1z"/>
<path d="M3785 3685 c-68 -32 -105 -87 -105 -158 0 -56 18 -95 60 -131 113
-95 280 -15 280 134 0 117 -132 204 -235 155z m109 -110 c41 -42 18 -107 -41
-113 -60 -6 -93 79 -46 116 23 17 68 15 87 -3z"/>
<path d="M300 2604 c-40 -17 -40 -9 -40 -789 0 -634 2 -754 14 -771 13 -17 27
-19 153 -19 123 1 143 3 185 24 58 27 124 100 139 152 11 36 14 38 73 49 94
18 345 24 434 11 126 -20 173 -35 786 -263 324 -120 622 -225 662 -233 137
-28 321 -14 443 35 25 10 215 100 421 199 206 100 550 266 764 369 256 123
403 200 431 224 81 71 114 213 72 310 -22 53 -90 123 -144 148 -92 43 -109 39
-760 -154 -325 -97 -598 -176 -605 -176 -8 0 -22 18 -32 40 -35 79 -56 90
-692 348 -674 273 -702 283 -869 318 -192 40 -391 43 -685 10 -129 -15 -247
-29 -262 -32 -23 -5 -27 -1 -38 30 -16 49 -82 120 -136 146 -38 19 -67 23
-172 26 -70 2 -134 1 -142 -2z m287 -130 c15 -11 38 -36 51 -54 l22 -33 0
-572 0 -572 -22 -33 c-43 -63 -70 -75 -174 -78 l-94 -4 0 687 0 687 94 -4 c77
-2 100 -7 123 -24z m938 -124 c130 -13 228 -32 345 -67 90 -26 1249 -494 1288
-519 34 -22 62 -74 62 -114 0 -76 -68 -150 -137 -150 -18 0 -248 66 -510 146
-307 94 -484 143 -499 140 -28 -7 -41 -45 -25 -73 15 -30 954 -317 1031 -316
102 1 179 53 224 153 15 33 29 60 32 60 4 0 111 31 828 244 213 64 402 116
419 116 17 0 50 -9 74 -21 103 -50 125 -199 41 -276 -27 -25 -1545 -761 -1622
-787 -85 -28 -208 -39 -295 -27 -92 12 -84 9 -786 269 -387 144 -569 207 -644
222 -149 30 -300 36 -448 16 -67 -9 -124 -16 -127 -16 -3 0 -6 214 -6 475 0
373 3 475 13 475 6 0 111 11 232 25 344 39 356 39 510 25z"/>
</g>
</svg>
