<?xml version="1.0" standalone="no"?>
<!DOCTYPE svg PUBLIC "-//W3C//DTD SVG 20010904//EN"
 "http://www.w3.org/TR/2001/REC-SVG-20010904/DTD/svg10.dtd">
<svg version="1.0" xmlns="http://www.w3.org/2000/svg"
 width="512.000000pt" height="512.000000pt" viewBox="0 0 512.000000 512.000000"
 preserveAspectRatio="xMidYMid meet">

<g transform="translate(0.000000,512.000000) scale(0.100000,-0.100000)"
fill="#000000" stroke="none">
<path d="M2922 5020 c-31 -29 -34 -49 -30 -229 3 -157 4 -163 27 -182 35 -28
85 -25 110 7 19 25 21 40 21 201 0 171 0 174 -25 198 -30 31 -73 32 -103 5z"/>
<path d="M1982 4630 c-33 -31 -37 -64 -14 -102 29 -47 213 -225 245 -237 33
-13 69 -1 91 31 33 47 23 65 -112 200 -107 107 -133 128 -158 128 -17 0 -40
-9 -52 -20z"/>
<path d="M3763 4538 c-125 -124 -136 -138 -135 -181 1 -56 59 -89 110 -63 15
8 78 66 140 129 96 97 112 119 112 146 0 21 -9 41 -25 56 -15 16 -35 25 -56
25 -27 0 -49 -16 -146 -112z"/>
<path d="M2895 4436 c-59 -26 -77 -59 -145 -269 l-66 -202 -224 -5 c-210 -5
-227 -7 -260 -27 -55 -34 -83 -92 -78 -161 2 -32 12 -69 23 -85 10 -16 93 -83
184 -149 91 -66 167 -124 169 -129 2 -5 -24 -92 -58 -193 -74 -223 -78 -268
-27 -340 37 -53 137 -81 201 -56 14 5 100 64 191 130 l166 121 32 -23 c18 -12
88 -64 157 -114 164 -119 180 -127 246 -122 88 7 164 87 164 173 0 17 -29 117
-65 224 -35 107 -62 198 -59 202 2 4 68 54 147 110 177 127 195 144 219 198
36 79 3 173 -77 218 -38 22 -51 23 -257 23 l-217 0 -65 203 c-56 173 -70 207
-98 234 -18 17 -43 36 -55 42 -29 15 -111 13 -148 -3z m155 -342 c64 -199 87
-244 144 -277 14 -8 97 -14 246 -17 159 -4 225 -8 225 -16 0 -7 -76 -67 -168
-134 -247 -179 -245 -172 -153 -461 38 -120 61 -208 56 -213 -10 -10 -31 5
-238 154 -189 137 -197 136 -450 -50 -85 -62 -159 -110 -166 -107 -11 4 0 49
50 202 67 205 73 244 50 298 -17 41 -51 70 -225 197 -78 56 -141 108 -141 116
0 12 35 14 212 14 308 0 310 1 398 279 28 90 55 174 60 187 20 52 36 24 100
-172z"/>
<path d="M1513 3580 c-56 -25 -71 -53 -124 -219 l-43 -139 -166 -4 c-143 -3
-169 -6 -199 -23 -47 -28 -72 -65 -78 -117 -9 -76 13 -108 133 -195 59 -43
119 -88 133 -99 l26 -22 -48 -146 c-26 -80 -47 -160 -47 -178 0 -46 38 -107
80 -130 25 -14 49 -18 86 -15 46 3 64 12 168 88 64 46 123 88 131 94 17 11 5
18 161 -94 104 -76 122 -85 168 -88 37 -3 60 1 86 15 38 21 80 90 80 131 0 14
-22 94 -48 177 l-49 151 125 89 c68 49 134 103 146 119 30 43 29 128 -2 173
-43 59 -69 67 -253 70 l-166 4 -43 136 c-51 164 -67 194 -124 221 -52 26 -79
26 -133 1z m116 -305 c67 -210 73 -215 296 -215 85 0 155 -3 155 -7 -1 -5 -48
-42 -107 -83 -191 -136 -196 -149 -129 -357 26 -80 46 -146 44 -148 -2 -2 -54
35 -117 81 -182 134 -200 134 -382 0 -63 -46 -115 -83 -117 -81 -2 2 17 67 43
146 68 208 62 224 -129 359 -58 41 -106 78 -106 83 0 4 71 7 158 7 222 0 222
0 293 218 24 72 46 132 50 132 3 0 25 -61 48 -135z"/>
<path d="M4293 3580 c-55 -25 -71 -52 -124 -219 l-44 -139 -165 -4 c-143 -3
-169 -6 -199 -23 -47 -28 -72 -65 -78 -117 -9 -76 13 -108 129 -193 57 -41
116 -86 133 -99 l30 -23 -49 -151 c-53 -165 -56 -206 -17 -260 40 -57 133 -79
195 -47 15 8 77 51 137 95 59 44 113 80 118 80 6 0 63 -39 128 -86 65 -47 128
-90 141 -95 72 -28 159 8 193 79 27 54 24 74 -34 253 l-44 135 125 90 c68 49
134 103 146 119 30 43 29 128 -2 173 -43 59 -69 67 -253 70 l-166 4 -43 136
c-51 165 -68 194 -124 221 -52 26 -79 26 -133 1z m117 -307 c65 -207 73 -213
295 -213 85 0 155 -3 155 -7 -1 -5 -48 -42 -107 -83 -191 -136 -196 -149 -129
-357 26 -80 46 -146 44 -148 -2 -2 -55 35 -118 81 -182 134 -198 134 -383 -1
-64 -47 -117 -82 -117 -79 0 3 21 70 46 149 65 207 61 220 -130 355 -58 41
-106 78 -106 83 0 4 70 7 155 7 223 0 226 3 296 222 24 75 47 133 51 130 3 -4
25 -66 48 -139z"/>
<path d="M1545 1974 c-99 -22 -208 -76 -537 -267 -159 -92 -292 -167 -296
-167 -5 0 -21 22 -36 49 -49 91 -133 141 -215 126 -20 -3 -101 -43 -180 -88
-161 -92 -187 -119 -198 -204 -4 -41 -1 -61 19 -104 46 -99 648 -1153 675
-1181 38 -40 103 -62 159 -54 47 6 272 125 322 170 74 66 81 168 18 275 -20
35 -33 67 -29 72 4 4 31 20 58 36 l50 29 515 -138 c338 -91 541 -140 590 -144
100 -9 202 10 289 51 56 27 647 387 1368 834 145 90 193 136 220 215 25 72 22
177 -6 241 -67 152 -228 215 -421 166 -119 -30 -164 -53 -613 -315 -406 -236
-478 -276 -496 -276 -6 0 -3 20 6 46 32 94 0 217 -77 294 -50 50 -101 74 -201
95 -119 25 -304 81 -543 165 -254 90 -320 101 -441 74z m388 -223 c252 -90
398 -136 530 -166 120 -26 149 -41 177 -88 38 -62 13 -151 -50 -185 -44 -23
-151 -7 -380 57 -118 34 -230 61 -247 61 -42 0 -73 -30 -73 -71 0 -65 8 -70
200 -123 419 -116 580 -138 723 -101 77 20 83 23 546 293 516 300 584 331 701
320 64 -6 97 -30 122 -85 22 -49 20 -102 -6 -152 -11 -19 -217 -151 -748 -478
-403 -249 -753 -460 -778 -469 -30 -12 -76 -17 -140 -18 -92 0 -113 4 -621
142 -289 78 -536 142 -548 142 -12 0 -58 -21 -102 -46 -44 -26 -81 -45 -83
-43 -1 2 -85 150 -186 328 -142 252 -179 325 -169 332 88 57 638 368 683 386
142 58 196 54 449 -36z m-1427 -199 c16 -10 654 -1139 654 -1156 0 -18 -28
-38 -148 -105 -55 -30 -100 -50 -110 -46 -20 6 -657 1129 -657 1158 0 15 31
37 120 88 129 74 125 72 141 61z"/>
<path d="M402 1387 c-46 -49 -12 -127 54 -127 39 0 74 36 74 76 0 65 -84 98
-128 51z"/>
</g>
</svg>
