<?xml version="1.0" standalone="no"?>
<!DOCTYPE svg PUBLIC "-//W3C//DTD SVG 20010904//EN"
 "http://www.w3.org/TR/2001/REC-SVG-20010904/DTD/svg10.dtd">
<svg version="1.0" xmlns="http://www.w3.org/2000/svg"
 width="512.000000pt" height="512.000000pt" viewBox="0 0 512.000000 512.000000"
 preserveAspectRatio="xMidYMid meet">

<g transform="translate(0.000000,512.000000) scale(0.100000,-0.100000)"
fill="#000000" stroke="none">
<path d="M708 4770 c-325 -68 -587 -317 -680 -646 -22 -78 -23 -88 -23 -639
l0 -560 28 -90 c67 -215 189 -382 370 -504 l47 -32 0 -247 c0 -227 2 -250 20
-279 10 -18 31 -40 45 -49 36 -23 106 -21 147 5 18 11 130 117 248 236 l215
215 61 0 61 0 6 -257 c6 -267 14 -331 57 -445 25 -67 41 -82 87 -82 26 0 41 7
55 24 23 28 22 39 -17 180 l-26 95 3 530 3 530 27 80 c40 116 92 199 183 291
105 106 215 169 360 206 39 10 298 13 1205 13 1296 0 1199 5 1365 -75 191 -93
335 -271 391 -485 17 -64 19 -116 19 -590 0 -513 0 -521 -23 -599 -50 -173
-153 -317 -300 -421 -114 -80 -112 -74 -112 -394 0 -149 -3 -271 -8 -271 -4 0
-120 113 -257 251 -159 160 -265 258 -290 270 -38 18 -82 19 -978 19 -1046 0
-1008 -2 -1162 69 -44 21 -110 61 -147 89 -79 61 -115 67 -147 26 -28 -35 -26
-66 5 -103 38 -45 178 -135 266 -170 166 -67 117 -64 1163 -68 l950 -4 270
-268 c149 -148 280 -274 292 -280 58 -30 142 3 175 69 16 31 18 69 18 321 l0
286 43 28 c171 113 298 287 364 502 l27 88 4 517 c3 437 1 531 -13 608 -64
371 -356 663 -729 729 -33 6 -162 11 -288 11 l-228 0 0 189 c0 370 -36 527
-161 712 -88 131 -141 158 -196 103 -34 -34 -27 -68 31 -138 62 -77 94 -134
130 -234 l31 -87 3 -272 4 -273 -819 0 c-521 0 -841 -4 -882 -11 -281 -45
-529 -232 -656 -492 -67 -139 -85 -226 -92 -458 l-6 -196 -82 -5 c-45 -3 -93
-11 -106 -18 -13 -7 -122 -109 -241 -228 l-218 -217 0 229 c0 226 0 230 -25
271 -15 26 -45 56 -77 76 -149 95 -265 251 -320 431 -21 70 -22 93 -26 547 -2
316 0 503 8 559 35 266 205 491 450 593 139 59 141 59 1317 59 1107 0 1156 -2
1271 -41 70 -24 93 -24 120 1 25 23 30 76 10 103 -7 9 -40 26 -73 38 -137 48
-138 48 -1335 48 -1051 0 -1131 -2 -1212 -19z"/>
<path d="M674 3866 c-28 -28 -34 -42 -34 -76 0 -34 6 -48 34 -76 27 -27 42
-34 73 -34 82 0 133 66 112 145 -14 48 -51 75 -106 75 -38 0 -50 -5 -79 -34z"/>
<path d="M1027 3880 c-34 -27 -48 -79 -36 -125 13 -45 56 -75 109 -75 34 0 48
6 76 34 28 28 34 42 34 76 0 34 -6 48 -34 76 -29 29 -41 34 -79 34 -29 0 -53
-7 -70 -20z"/>
<path d="M1384 3889 c-30 -15 -54 -61 -54 -104 0 -52 53 -105 105 -105 73 0
114 40 115 112 0 39 -5 52 -31 77 -25 25 -39 31 -72 30 -23 0 -51 -5 -63 -10z"/>
<path d="M2395 3111 c-143 -39 -249 -103 -345 -208 -68 -75 -141 -209 -161
-298 -11 -48 -17 -58 -44 -69 -48 -21 -101 -72 -127 -124 -22 -44 -23 -58 -23
-247 0 -186 2 -203 22 -241 84 -157 270 -191 399 -72 70 64 79 102 79 323 0
187 0 191 -27 241 -27 51 -72 97 -115 117 -29 13 -25 35 27 142 108 225 365
347 608 290 93 -22 173 -67 252 -142 55 -51 79 -83 109 -147 59 -121 59 -131
12 -156 -44 -22 -82 -67 -106 -123 -19 -46 -22 -387 -3 -449 13 -44 78 -123
108 -133 31 -10 24 -31 -30 -86 l-49 -52 -36 31 c-55 49 -94 65 -171 70 -179
11 -299 -105 -270 -261 8 -43 66 -111 120 -140 33 -17 58 -22 126 -22 77 0 90
3 140 31 40 23 63 45 86 82 21 35 51 65 93 93 70 47 107 89 151 170 22 41 38
60 60 68 50 17 95 58 126 113 l29 53 0 205 c0 191 -1 208 -22 245 -28 52 -78
100 -125 120 -21 8 -38 22 -38 31 0 33 -53 172 -88 229 -82 136 -222 249 -373
300 -113 38 -287 45 -394 16z m-384 -740 l29 -29 0 -174 c0 -190 -4 -205 -59
-228 -38 -15 -75 -7 -107 25 -24 24 -24 27 -24 201 l0 178 27 28 c38 40 93 39
134 -1z m1242 3 c33 -33 40 -78 36 -243 -4 -113 -7 -133 -25 -158 -27 -36 -73
-50 -114 -33 -53 22 -60 50 -60 235 l0 167 29 29 c40 39 97 41 134 3z m-423
-769 c61 -55 -32 -126 -124 -95 -63 20 -74 69 -23 101 39 25 117 22 147 -6z"/>
<path d="M3581 2824 c-28 -35 -26 -69 4 -99 l24 -25 329 0 c318 0 330 1 356
21 34 27 36 77 3 107 -23 22 -28 22 -359 22 l-337 0 -20 -26z"/>
<path d="M3585 2485 c-30 -30 -32 -64 -4 -99 l20 -26 268 0 c267 0 268 0 289
23 31 33 29 80 -4 106 -25 20 -39 21 -286 21 l-259 0 -24 -25z"/>
</g>
</svg>
