<?xml version="1.0" standalone="no"?>
<!DOCTYPE svg PUBLIC "-//W3C//DTD SVG 20010904//EN"
 "http://www.w3.org/TR/2001/REC-SVG-20010904/DTD/svg10.dtd">
<svg version="1.0" xmlns="http://www.w3.org/2000/svg"
 width="512.000000pt" height="512.000000pt" viewBox="0 0 512.000000 512.000000"
 preserveAspectRatio="xMidYMid meet">

<g transform="translate(0.000000,512.000000) scale(0.100000,-0.100000)"
fill="#000000" stroke="none">
<path d="M2705 5095 l-25 -24 0 -1329 0 -1329 21 -27 20 -26 278 0 c277 0 278
0 299 23 27 29 28 67 3 98 -19 24 -21 24 -245 27 l-226 3 0 1230 0 1229 875 0
875 0 0 -1230 0 -1230 -511 0 c-369 0 -516 -3 -532 -12 -50 -26 -60 -69 -26
-112 l20 -26 574 0 c549 0 574 1 596 19 l24 19 3 1319 c1 725 0 1328 -3 1341
-3 12 -14 31 -25 42 -20 20 -38 20 -995 20 l-976 0 -24 -25z"/>
<path d="M455 5088 c-47 -25 -45 13 -45 -1015 l0 -974 25 -24 24 -25 973 0
c1030 1 991 -1 1016 47 17 30 17 1921 1 1956 -6 14 -22 30 -36 36 -34 15
-1929 15 -1958 -1z m1855 -1013 l0 -875 -97 0 -98 0 -191 332 -192 331 43 63
c217 317 66 738 -304 848 -71 21 -220 21 -292 0 -254 -75 -425 -315 -405 -569
16 -190 120 -355 283 -447 l51 -29 -105 -182 c-58 -100 -126 -219 -152 -264
l-46 -83 -122 0 -123 0 0 875 0 875 875 0 875 0 0 -875z m-867 550 c187 -57
311 -257 276 -448 -14 -79 -57 -173 -72 -158 -6 6 -39 59 -73 118 -66 116 -89
135 -141 117 -21 -7 -50 -49 -134 -194 -58 -101 -111 -186 -117 -188 -21 -7
-114 52 -154 98 -81 90 -119 214 -100 325 26 157 125 278 267 327 62 21 184
23 248 3z m259 -1008 l237 -412 -476 -3 c-262 -1 -478 -1 -480 1 -4 5 470 827
477 827 3 0 112 -186 242 -413z"/>
<path d="M3021 4694 c-12 -15 -21 -33 -21 -40 0 -29 25 -64 53 -74 41 -14 464
-13 506 1 54 19 69 79 28 117 -23 21 -30 22 -284 22 l-262 0 -20 -26z"/>
<path d="M3021 4364 c-24 -31 -26 -43 -9 -79 7 -16 24 -29 47 -36 24 -6 250
-9 668 -7 l632 3 22 22 c30 30 30 80 0 105 -22 17 -57 18 -681 18 l-659 0 -20
-26z"/>
<path d="M3038 4005 c-47 -26 -46 -99 2 -125 21 -11 1296 -15 1325 -4 10 4 23
21 30 37 16 39 3 80 -31 96 -18 8 -206 11 -662 11 -537 -1 -641 -3 -664 -15z"/>
<path d="M3021 3614 c-24 -31 -26 -43 -9 -79 7 -16 24 -29 47 -36 24 -6 250
-9 668 -7 l632 3 22 22 c30 30 30 80 0 105 -22 17 -57 18 -681 18 l-659 0 -20
-26z"/>
<path d="M3038 3255 c-47 -26 -46 -99 2 -125 21 -11 1296 -15 1325 -4 10 4 23
21 30 37 16 39 3 80 -31 96 -18 8 -206 11 -662 11 -537 -1 -641 -3 -664 -15z"/>
<path d="M3820 2880 c-25 -25 -26 -71 -1 -101 l19 -24 261 0 c255 0 261 0 282
22 30 30 30 80 0 105 -21 16 -45 18 -282 18 -246 0 -260 -1 -279 -20z"/>
<path d="M431 2734 c-21 -27 -21 -30 -21 -1041 0 -630 4 -1021 10 -1032 5 -10
22 -24 39 -30 24 -10 34 -10 59 3 16 8 32 23 36 31 3 9 6 451 6 981 l0 964
875 0 875 0 0 -1230 0 -1230 -875 0 -875 0 0 135 c0 131 -1 137 -25 160 -31
32 -69 32 -100 0 -25 -24 -25 -26 -25 -210 0 -184 0 -186 25 -210 l24 -25 976
0 c957 0 975 0 995 20 11 11 22 30 25 42 3 13 4 616 3 1341 l-3 1319 -24 19
c-22 18 -53 19 -1001 19 l-979 0 -20 -26z"/>
<path d="M779 2359 c-25 -9 -49 -45 -49 -73 0 -7 9 -25 21 -40 l20 -26 263 0
c261 0 263 0 284 23 39 41 25 97 -29 116 -40 14 -473 14 -510 0z"/>
<path d="M2725 2039 c-47 -26 -45 12 -45 -1016 l0 -974 25 -24 24 -25 976 0
c957 0 975 0 995 20 11 11 22 30 25 42 3 13 4 454 3 980 l-3 957 -23 23 -23
23 -967 2 c-690 2 -973 -1 -987 -8z m1855 -1014 l0 -875 -875 0 -875 0 0 875
0 875 875 0 875 0 0 -875z"/>
<path d="M3042 1618 c-38 -19 -44 -66 -40 -330 4 -314 -9 -293 183 -293 126 0
136 1 157 22 18 18 23 37 26 93 l4 70 54 0 54 0 0 -200 0 -200 -37 0 c-73 -1
-93 -40 -93 -180 0 -99 13 -156 40 -170 11 -6 135 -10 318 -10 l299 0 21 23
c20 22 22 33 22 158 0 129 -1 137 -23 157 -15 14 -36 22 -60 22 l-37 0 0 200
0 200 55 0 55 0 0 -60 c0 -117 28 -134 207 -128 165 5 153 -20 153 319 l0 278
-26 20 c-26 21 -34 21 -668 20 -440 0 -648 -4 -664 -11z m1208 -308 l0 -170
-30 0 -30 0 0 70 c0 62 -3 74 -25 95 -23 24 -28 25 -178 25 -141 0 -157 -2
-181 -21 l-26 -20 0 -305 0 -305 25 -24 c16 -17 35 -25 60 -25 32 0 35 -2 35
-30 l0 -30 -195 0 -195 0 0 29 c0 26 4 29 42 34 79 11 78 8 78 349 l0 299 -25
24 c-24 24 -28 25 -183 25 -152 0 -159 -1 -180 -23 -16 -17 -22 -37 -24 -92
l-3 -70 -30 0 -30 0 -3 168 -2 167 550 0 550 0 0 -170z"/>
<path d="M779 2029 c-25 -9 -49 -45 -49 -73 0 -7 9 -25 21 -40 l20 -26 659 0
c624 0 659 1 681 18 30 25 30 75 0 105 l-22 22 -642 2 c-394 1 -652 -2 -668
-8z"/>
<path d="M755 1635 c-26 -25 -29 -35 -19 -73 14 -52 13 -52 698 -52 453 0 642
3 660 11 34 16 47 57 31 96 -7 16 -20 33 -30 37 -9 3 -309 6 -666 6 l-650 0
-24 -25z"/>
<path d="M779 1279 c-25 -9 -49 -45 -49 -73 0 -7 9 -25 21 -40 l20 -26 659 0
c624 0 659 1 681 18 30 25 30 75 0 105 l-22 22 -642 2 c-394 1 -652 -2 -668
-8z"/>
<path d="M755 885 c-26 -25 -29 -35 -19 -73 14 -52 13 -52 698 -52 453 0 642
3 660 11 34 16 47 57 31 96 -7 16 -20 33 -30 37 -9 3 -309 6 -666 6 l-650 0
-24 -25z"/>
<path d="M1583 543 c-50 -10 -70 -86 -33 -123 19 -19 33 -20 279 -20 237 0
261 2 282 18 30 25 30 75 0 105 -21 21 -29 22 -264 23 -133 1 -252 0 -264 -3z"/>
</g>
</svg>
