<?xml version="1.0" standalone="no"?>
<!DOCTYPE svg PUBLIC "-//W3C//DTD SVG 20010904//EN"
 "http://www.w3.org/TR/2001/REC-SVG-20010904/DTD/svg10.dtd">
<svg version="1.0" xmlns="http://www.w3.org/2000/svg"
 width="512.000000pt" height="512.000000pt" viewBox="0 0 512.000000 512.000000"
 preserveAspectRatio="xMidYMid meet">

<g transform="translate(0.000000,512.000000) scale(0.100000,-0.100000)"
fill="#000000" stroke="none">
<path d="M4520 4741 c-56 -17 -92 -47 -250 -205 l-165 -166 -1782 0 c-1280 0
-1797 -3 -1835 -11 -113 -24 -215 -106 -264 -212 l-29 -62 -3 -1310 c-2 -1285
-2 -1311 18 -1375 23 -78 77 -151 143 -197 95 -65 73 -63 900 -63 l750 0 -7
-52 c-10 -77 -59 -214 -102 -288 -56 -97 -163 -197 -268 -250 -100 -51 -107
-57 -108 -101 -1 -23 6 -39 26 -56 l27 -23 843 0 c838 0 843 0 870 21 26 20
34 57 20 93 -3 9 -47 37 -98 63 -126 65 -234 173 -294 293 -42 84 -82 217 -82
271 l0 29 768 2 767 3 57 27 c75 35 142 104 181 186 l32 67 3 1260 2 1260 140
140 c151 152 179 196 180 278 0 77 -23 114 -148 240 -99 99 -125 120 -166 132
-54 16 -87 18 -126 6z m192 -249 c79 -80 98 -104 98 -127 0 -26 -112 -141
-865 -895 l-865 -865 -130 130 -130 130 862 862 c810 810 865 863 897 863 31
0 47 -12 133 -98z m-1420 -935 l-653 -653 -44 -238 c-49 -259 -51 -273 -31
-298 28 -38 53 -37 298 8 131 24 246 48 255 53 10 5 319 312 688 680 368 369
673 671 678 671 4 0 6 -523 5 -1162 l-3 -1163 -22 -40 c-27 -51 -57 -79 -113
-104 -45 -20 -54 -21 -1929 -21 -1383 0 -1894 3 -1922 11 -50 16 -105 61 -132
112 l-22 42 -3 1255 c-2 690 0 1279 3 1307 8 69 55 139 114 170 l44 23 1721 0
1721 0 -653 -653z m-468 -1030 c-53 -10 -97 -17 -99 -15 -3 3 23 154 31 177 3
10 30 -10 85 -65 l80 -79 -97 -18z m-146 -1422 c16 -177 102 -376 224 -517
l50 -58 -540 0 -540 0 35 38 c66 70 112 137 152 222 40 84 91 257 91 310 0 14
3 30 7 33 4 4 122 6 262 5 l256 -3 3 -30z"/>
<path d="M519 3561 c-35 -36 -37 -61 -5 -98 l24 -28 174 -6 c128 -4 186 -10
223 -23 159 -57 286 -167 353 -307 22 -46 45 -108 51 -137 6 -29 11 -155 11
-280 0 -272 9 -344 54 -437 83 -174 235 -271 441 -282 198 -11 331 35 442 150
69 71 107 139 128 229 22 94 20 134 -10 163 -30 31 -67 32 -98 3 -19 -17 -27
-40 -35 -91 -19 -124 -84 -217 -187 -268 -46 -22 -61 -24 -195 -24 -138 0
-147 1 -196 27 -67 35 -138 115 -163 184 -19 49 -21 77 -21 289 0 128 -5 268
-11 311 -30 215 -155 411 -338 529 -139 90 -279 125 -497 125 -114 0 -116 0
-145 -29z"/>
</g>
</svg>
