<?xml version="1.0" standalone="no"?>
<!DOCTYPE svg PUBLIC "-//W3C//DTD SVG 20010904//EN"
 "http://www.w3.org/TR/2001/REC-SVG-20010904/DTD/svg10.dtd">
<svg version="1.0" xmlns="http://www.w3.org/2000/svg"
 width="512.000000pt" height="512.000000pt" viewBox="0 0 512.000000 512.000000"
 preserveAspectRatio="xMidYMid meet">

<g transform="translate(0.000000,512.000000) scale(0.100000,-0.100000)"
fill="#000000" stroke="none">
<path d="M2469 4962 c-158 -115 -396 -192 -596 -192 -40 0 -58 -5 -80 -24
l-28 -24 3 -119 c13 -603 274 -1109 684 -1323 42 -22 90 -40 107 -40 18 0 60
14 94 31 418 211 686 722 699 1332 l3 119 -28 24 c-22 19 -40 24 -80 24 -199
0 -437 76 -592 190 -40 29 -80 50 -95 50 -15 0 -54 -21 -91 -48z m137 -163
c116 -80 331 -157 479 -174 111 -12 105 -7 105 -78 -1 -138 -48 -374 -107
-532 -89 -240 -268 -467 -450 -572 l-73 -42 -69 40 c-178 102 -333 289 -433
521 -69 161 -127 427 -128 585 0 57 2 63 23 67 12 2 67 11 122 19 157 25 340
95 445 171 19 14 36 25 38 26 2 0 24 -14 48 -31z"/>
<path d="M2723 4314 c-6 -3 -58 -56 -114 -117 -57 -62 -107 -114 -111 -115 -5
-2 -31 17 -58 42 -56 53 -85 58 -126 23 -19 -17 -27 -33 -27 -57 0 -28 13 -45
90 -121 132 -130 120 -134 327 94 64 70 121 139 126 153 23 59 -46 122 -107
98z"/>
<path d="M788 3396 c-39 -29 -42 -93 -6 -123 8 -7 97 -51 198 -98 102 -47 191
-94 198 -103 6 -8 12 -26 12 -39 0 -31 -547 -1194 -572 -1216 -11 -9 -29 -17
-39 -17 -10 0 -105 41 -210 90 -106 50 -198 90 -205 90 -29 0 -63 -24 -75 -52
-10 -24 -9 -35 3 -61 14 -28 41 -44 219 -127 193 -90 208 -95 270 -95 57 0 73
4 118 32 l52 33 70 -51 c81 -59 93 -79 143 -239 20 -63 47 -137 60 -165 l23
-50 -36 -69 c-48 -93 -55 -180 -19 -258 29 -62 73 -110 132 -141 32 -16 59
-21 119 -22 l77 0 11 -32 c14 -44 83 -120 133 -145 30 -16 62 -23 120 -25 l78
-2 23 -48 c23 -50 72 -100 128 -130 50 -28 189 -25 244 5 l42 22 42 -44 c86
-95 209 -118 324 -62 42 21 62 26 74 19 136 -84 256 -145 304 -155 155 -33
317 75 348 232 l11 55 86 0 c103 0 144 16 213 85 52 52 81 123 84 204 l2 49
45 12 c139 35 227 146 228 286 l0 67 43 10 c93 24 183 112 208 206 11 42 8
158 -6 188 -5 13 -2 20 11 24 108 38 182 71 233 104 l62 40 32 -17 c22 -12 54
-17 102 -17 67 0 78 4 265 93 107 51 203 101 212 113 39 45 3 128 -55 128 -13
0 -110 -41 -216 -90 -105 -50 -200 -90 -210 -90 -10 0 -28 8 -39 18 -25 21
-572 1184 -572 1215 0 13 6 31 13 39 6 9 95 56 197 103 101 47 190 91 198 98
53 43 20 136 -49 137 -35 0 -395 -170 -442 -210 -43 -37 -66 -75 -75 -133 l-7
-41 -75 -23 c-191 -59 -269 -62 -584 -22 -442 56 -602 44 -767 -57 l-60 -36
-62 31 c-126 64 -221 73 -462 46 -157 -18 -230 -19 -330 -4 l-75 11 0 57 c0
71 -26 128 -76 170 -48 41 -407 211 -443 211 -14 0 -34 -6 -43 -14z m3281
-1058 l248 -527 -36 -24 c-77 -51 -242 -117 -292 -117 -10 0 -126 64 -256 142
l-238 142 -125 -3 c-194 -4 -344 20 -480 76 -132 54 -200 103 -338 240 -93 93
-140 133 -155 132 -12 0 -71 -19 -132 -42 l-109 -42 -96 -124 c-71 -93 -106
-130 -139 -148 -77 -40 -176 -27 -215 29 -34 48 -22 76 98 250 63 90 121 169
128 175 7 6 136 83 287 171 203 120 288 164 330 173 85 19 272 13 501 -15 376
-45 453 -44 647 13 54 16 104 29 111 28 7 -1 125 -239 261 -529z m-2559 456
c69 -4 155 -1 249 10 167 19 260 19 316 2 l40 -12 -150 -89 -150 -90 -132
-189 c-79 -111 -137 -205 -144 -230 -17 -61 -6 -148 26 -201 54 -92 157 -140
284 -133 133 8 213 63 340 233 63 84 71 91 123 108 l56 17 68 -71 c169 -175
374 -288 608 -335 46 -9 152 -18 246 -20 l165 -5 180 -106 c256 -151 283 -169
305 -205 38 -63 17 -150 -47 -189 -63 -39 -103 -27 -324 105 -125 74 -207 116
-225 116 -61 0 -97 -81 -56 -128 9 -11 94 -65 188 -120 196 -116 224 -142 224
-210 0 -26 -6 -58 -13 -72 -20 -40 -74 -70 -125 -70 -40 0 -69 14 -248 120
-121 72 -213 120 -229 120 -54 0 -92 -70 -65 -120 5 -10 84 -62 175 -115 91
-54 176 -109 190 -123 56 -56 52 -147 -10 -201 -30 -26 -44 -31 -86 -31 -45 0
-66 9 -228 105 -97 58 -189 105 -202 105 -29 0 -64 -29 -74 -60 -13 -43 12
-74 105 -129 100 -59 136 -95 146 -146 17 -94 -77 -185 -168 -161 -22 5 -223
119 -242 137 -5 4 15 49 46 101 68 116 78 145 78 222 -1 153 -122 269 -281
268 l-66 0 -20 42 c-51 104 -138 159 -255 160 l-69 1 -18 41 c-44 98 -142 158
-257 158 l-70 -1 -18 43 c-20 49 -90 118 -144 142 -22 9 -65 16 -107 16 -115
0 -193 -52 -261 -173 -16 -28 -31 -51 -34 -51 -3 0 -23 53 -43 119 -51 161
-84 209 -195 291 l-89 65 229 486 229 485 62 -13 c34 -7 109 -16 167 -19z
m-14 -1360 c19 -9 41 -29 49 -45 32 -60 22 -89 -95 -288 -60 -103 -118 -196
-129 -205 -48 -44 -145 -25 -176 34 -29 56 -21 83 88 269 109 189 145 237 180
244 41 8 49 7 83 -9z m362 -210 c35 -23 56 -81 44 -121 -17 -54 -212 -381
-244 -408 -34 -29 -84 -33 -127 -10 -31 15 -61 69 -61 107 0 21 194 370 230
413 37 44 107 53 158 19z m342 -203 c32 -23 50 -58 50 -96 0 -43 -217 -414
-257 -437 -39 -25 -94 -23 -128 4 -35 28 -57 80 -49 116 7 28 205 373 232 405
33 38 105 42 152 8z m314 -185 c47 -20 76 -61 76 -109 0 -31 -15 -65 -71 -161
-83 -141 -100 -162 -145 -176 -72 -24 -147 32 -147 110 0 29 16 65 63 147 81
140 106 172 144 189 39 17 40 17 80 0z"/>
</g>
</svg>
